<svg xmlns="http://www.w3.org/2000/svg" xmlns:xlink="http://www.w3.org/1999/xlink" width="11" height="16" viewBox="0 0 11 16"><defs><path id="j31qa" d="M602.5 3233.267a2.77 2.77 0 0 1-2.767-2.767 2.77 2.77 0 0 1 2.767-2.767 2.77 2.77 0 0 1 2.767 2.767 2.77 2.77 0 0 1-2.767 2.767zm0-8.267a5.506 5.506 0 0 0-5.5 5.5c0 3.764 4.922 9.29 5.131 9.523.197.219.54.218.737 0 .21-.234 5.132-5.76 5.132-9.523 0-3.033-2.467-5.5-5.5-5.5z"/></defs><g><g transform="translate(-597 -3225)"><use fill="#fff" xlink:href="#j31qa"/></g></g></svg>