<svg xmlns="http://www.w3.org/2000/svg" xmlns:xlink="http://www.w3.org/1999/xlink" width="38" height="15" viewBox="0 0 38 15"><defs><path id="m4kva" d="M430.35 267.528h-36.769c-.32 0-.581-.123-.581-.275 0-.152.26-.276.581-.276h36.77c.32 0 .58.124.58.276 0 .152-.26.275-.58.275z"/><path id="m4kvb" d="M400.18 274.432a.277.277 0 0 1-.195-.08l-6.905-6.906a.277.277 0 0 1 0-.39l6.905-6.901a.276.276 0 0 1 .39.39l-6.71 6.706 6.71 6.71a.276.276 0 0 1-.195.47z"/></defs><g><g transform="translate(-393 -260)"><g><use fill="#a1a1a1" xlink:href="#m4kva"/></g><g><use fill="#a1a1a1" xlink:href="#m4kvb"/></g></g></g></svg>