<svg xmlns="http://www.w3.org/2000/svg" xmlns:xlink="http://www.w3.org/1999/xlink" width="38" height="15" viewBox="0 0 38 15"><defs><path id="d2oxa" d="M499.581 267.528h36.77c.32 0 .58-.123.58-.275 0-.152-.26-.276-.58-.276h-36.77c-.32 0-.581.124-.581.276 0 .152.26.275.581.275z"/><path id="d2oxb" d="M529.752 274.432c.07 0 .141-.027.195-.08l6.904-6.906a.277.277 0 0 0 0-.39l-6.905-6.901a.276.276 0 0 0-.389.39l6.71 6.706-6.71 6.71a.276.276 0 0 0 .195.47z"/></defs><g><g transform="translate(-499 -260)"><g><use fill="#008ddc" xlink:href="#d2oxa"/></g><g><use fill="#008ddc" xlink:href="#d2oxb"/></g></g></g></svg>