<svg xmlns="http://www.w3.org/2000/svg" xmlns:xlink="http://www.w3.org/1999/xlink" width="43" height="42" viewBox="0 0 43 42"><defs><path id="z4kpa" d="M700.043 1120.342a3.507 3.507 0 1 1 0-7.014 3.507 3.507 0 0 1 0 7.014zm0-8.417a4.91 4.91 0 1 0 0 9.82 4.91 4.91 0 0 0 0-9.82z"/><path id="z4kpb" d="M703.55 1140.683v-4.209a.701.701 0 0 0-1.403 0v4.21h-1.403v-4.21a.701.701 0 0 0-1.403 0v4.21h-1.402v-4.21a.702.702 0 0 0-1.403 0v4.21h-1.403v-6.314h9.82v6.313zm-23.147-8.417h1.403v.702c0 .774.628 1.402 1.403 1.402h1.403c.774 0 1.402-.628 1.402-1.402v-.702h1.403v.702c0 .774.628 1.402 1.403 1.402h1.403c.775 0 1.403-.628 1.403-1.402v-.702h1.403v1.052c.001.445.282.84.701.988v6.377h-13.327zm11.223-11.924h1.403v1.403h-1.403zm1.403-8.417v1.402h-1.403v-1.402zm2.104-2.806c0-.388.314-.701.701-.701h8.417c.388 0 .702.313.702.701v.701h-9.82zm4.903-7.689l1.843 5.585h-3.674zm8.424 11.897h-1.403v-1.402h1.403zm-1.403 8.418v-1.403h1.403v1.403zm-12.626 9.82h11.223v1.403h-11.223zm.702-7.716h9.82v6.313h-1.403v-4.209a.701.701 0 0 0-1.403 0v4.209h-1.403v-4.209a.701.701 0 0 0-1.403 0v4.209h-1.402v-4.209a.702.702 0 0 0-1.403 0v4.209h-1.403zm13.327-7.716h-1.403v-1.403h1.403zm-1.403 1.403h1.403v1.403h-1.403zm-12.626-6.313h11.223v11.223h-11.223zm-2.805 6.313h1.403v1.403h-1.403zm1.403-1.403h-1.403v-1.403h1.403zm16.834 18.237h1.402c.776 0 1.404-.628 1.404-1.402v-.702h1.402v.702c0 .774.628 1.402 1.403 1.402h1.403c.775 0 1.403-.628 1.403-1.402v-.702h1.403v8.417h-13.328v-6.377c.42-.148.7-.543.702-.988v-1.052h1.403v.702c0 .774.628 1.402 1.403 1.402zm11.222-2.104c0-.775-.628-1.403-1.402-1.403h-1.403c-.775 0-1.403.628-1.403 1.403v.702h-1.403v-.702c0-.775-.628-1.403-1.403-1.403h-1.402c-.775 0-1.404.628-1.404 1.403v.702h-1.402v-.702c0-.775-.628-1.403-1.403-1.403h-1.468a1.052 1.052 0 0 0-.637-.637v-6.572c.21-.122.385-.297.507-.506h1.598c.775 0 1.403-.628 1.403-1.403v-9.82c0-.775-.628-1.403-1.403-1.403h-1.598a1.4 1.4 0 0 0-.507-.507v-.896a2.104 2.104 0 0 0-2.104-2.104h-.895l-1.988-6.024a1.383 1.383 0 0 0-2.65 0l-1.988 6.024h-.896a2.104 2.104 0 0 0-2.104 2.104v.896c-.21.122-.384.297-.506.507h-1.598c-.775 0-1.403.628-1.403 1.403v9.82c0 .775.628 1.403 1.403 1.403h1.598c.122.21.296.384.506.506v6.572c-.297.107-.531.34-.637.637h-1.467c-.775 0-1.403.628-1.403 1.403v.702h-1.403v-.702c0-.775-.628-1.403-1.403-1.403h-1.403c-.774 0-1.403.628-1.403 1.403v.702h-1.402v-.702c0-.775-.629-1.403-1.403-1.403h-1.403c-.775 0-1.403.628-1.403 1.403v9.118c0 .388.314.702.702.702h40.8a.701.701 0 0 0 .7-.702.685.685 0 0 0-.117-.364z"/><path id="z4kpc" d="M701.446 1116.133h-.702v-1.403a.701.701 0 1 0-1.403 0v2.105c0 .387.315.701.702.701h1.402a.702.702 0 1 0 0-1.403z"/><path id="z4kpd" d="M711.265 1111.925c0 .387.315.701.702.701h7.014c.189 0 .37.077.5.215.13.128.204.304.202.486a.701.701 0 0 1-.702.702h-7.014a.702.702 0 0 0 0 1.403h7.014a2.104 2.104 0 0 0 2.104-2.105 2.115 2.115 0 0 0-2.104-2.104h-7.014a.701.701 0 0 0-.702.702z"/><path id="z4kpe" d="M681.104 1109.82h5.612a.701.701 0 0 1 .701.702c0 .189-.077.37-.215.5a.671.671 0 0 1-.486.201h-2.105a2.103 2.103 0 0 0-2.104 2.104 2.115 2.115 0 0 0 2.104 2.105h3.508a.701.701 0 0 0 0-1.403h-3.508a.683.683 0 0 1-.499-.214.673.673 0 0 1-.202-.488c0-.387.314-.7.701-.7h2.105a2.115 2.115 0 0 0 2.104-2.105 2.116 2.116 0 0 0-2.104-2.104h-5.612a.684.684 0 0 1-.5-.215.67.67 0 0 1-.2-.487c0-.387.313-.701.7-.701h11.223a.701.701 0 1 0 0-1.403h-11.223a2.104 2.104 0 0 0-2.104 2.104 2.053 2.053 0 0 0 .613 1.479c.391.403.93.629 1.491.625z"/><path id="z4kpf" d="M707.759 1107.015h7.014c.189 0 .37.077.5.215.13.127.203.303.201.486a.701.701 0 0 1-.701.702h-6.313a.701.701 0 0 0 0 1.402h6.313a2.104 2.104 0 0 0 2.104-2.104 2.114 2.114 0 0 0-2.104-2.104h-7.014a.701.701 0 1 0 0 1.403z"/><path id="z4kpg" d="M684.611 1136.474h-1.402a.701.701 0 0 0 0 1.404v.7a.702.702 0 0 0 1.403 0v-.7a.702.702 0 1 0 0-1.404z"/><path id="z4kph" d="M690.223 1136.474h-1.403a.702.702 0 0 0 0 1.404v.7a.702.702 0 0 0 1.403 0v-.7a.701.701 0 0 0 0-1.404z"/><path id="z4kpi" d="M709.863 1137.878v.7a.702.702 0 0 0 1.402 0v-.7a.701.701 0 0 0 0-1.404h-1.402a.701.701 0 0 0 0 1.404z"/><path id="z4kpj" d="M715.474 1137.878v.7a.702.702 0 0 0 1.403 0v-.7a.702.702 0 1 0 0-1.404h-1.403a.702.702 0 0 0 0 1.404z"/></defs><g><g transform="translate(-679 -1100)"><g><use fill="#008ddc" xlink:href="#z4kpa"/></g><g><use fill="#008ddc" xlink:href="#z4kpb"/></g><g><use fill="#008ddc" xlink:href="#z4kpc"/></g><g><use fill="#008ddc" xlink:href="#z4kpd"/></g><g><use fill="#008ddc" xlink:href="#z4kpe"/></g><g><use fill="#008ddc" xlink:href="#z4kpf"/></g><g><use fill="#008ddc" xlink:href="#z4kpg"/></g><g><use fill="#008ddc" xlink:href="#z4kph"/></g><g><use fill="#008ddc" xlink:href="#z4kpi"/></g><g><use fill="#008ddc" xlink:href="#z4kpj"/></g></g></g></svg>