<svg xmlns="http://www.w3.org/2000/svg" xmlns:xlink="http://www.w3.org/1999/xlink" width="48" height="48" viewBox="0 0 48 48"><defs><path id="wnu3a" d="M423.218 1168.545l-6.404 3.842v-6.138l6.404-3.842zm-7.204-3.682l-2.446-1.468 6.448-3.87 2.446 1.468zm-.8 7.523l-6.404-3.842v-6.137l6.403 3.842zm.8-15.262l2.446 1.468-6.448 3.87-2.447-1.469zm8.777 3.661a.61.61 0 0 0-.03-.072.845.845 0 0 0-.049-.118.812.812 0 0 0-.055-.073.762.762 0 0 0-.07-.09.901.901 0 0 0-.074-.06.901.901 0 0 0-.08-.065l-8.005-4.802a.8.8 0 0 0-.824 0l-8.005 4.802a.7.7 0 0 0-.084.065.918.918 0 0 0-.075.06.845.845 0 0 0-.069.089.712.712 0 0 0-.056.074.843.843 0 0 0-.048.115.81.81 0 0 0-.03.076.774.774 0 0 0-.028.207v8.005a.8.8 0 0 0 .388.686l8.005 4.802.008.004.01.007c.041.021.085.04.13.053.019.007.036.017.056.023.136.037.28.037.416 0 .02-.006.037-.016.055-.023a.772.772 0 0 0 .131-.053l.01-.007.008-.004 8.004-4.802a.8.8 0 0 0 .389-.686v-8.005c0-.07-.01-.14-.028-.208z"/><path id="wnu3b" d="M416.654 1141.302a.83.83 0 0 0-1.28 0l-2.402 3.202 1.28.96.961-1.28v6.403h1.601v-6.403l.96 1.28 1.281-.96z"/><path id="wnu3c" d="M417.775 1184.526l-.96 1.28v-6.403h-1.602v6.404l-.96-1.28-1.28.96 2.4 3.202a.8.8 0 0 0 1.281 0l2.401-3.202z"/><path id="wnu3d" d="M415.213 1153.79v-1.602h1.601v1.601z"/><path id="wnu3e" d="M415.213 1177.803v-1.601h1.601v1.6z"/><path id="wnu3f" d="M401.606 1164.195h-6.404l1.28-.96-.96-1.281-3.201 2.401a.8.8 0 0 0 0 1.28l3.201 2.402.96-1.28-1.28-.961h6.404z"/><path id="wnu3g" d="M439.867 1164.515a.802.802 0 0 0-.16-.16l-3.202-2.401-.96 1.28 1.28.961h-6.403v1.6h6.403l-1.28.961.96 1.281 3.202-2.401a.8.8 0 0 0 .16-1.12z"/><path id="wnu3h" d="M403.207 1165.796v-1.601h1.6v1.6z"/><path id="wnu3i" d="M427.22 1165.796v-1.601h1.6v1.6z"/><path id="wnu3j" d="M406.392 1154.241l-4.528-4.527 1.584.226.227-1.585-3.961-.57a.8.8 0 0 0-.91.91l.566 3.962 1.585-.227-.226-1.584 4.528 4.527z"/><path id="wnu3k" d="M433.222 1181.296l-.566-3.962-1.587.228.226 1.584-4.527-4.527-1.132 1.132 4.527 4.527-1.582-.227-.227 1.585 3.962.566a.8.8 0 0 0 .906-.906z"/><path id="wnu3l" d="M407.524 1157.638l-1.132-1.132 1.132-1.132 1.132 1.132z"/><path id="wnu3m" d="M424.504 1174.617l-1.132-1.132 1.132-1.132 1.132 1.132z"/><path id="wnu3n" d="M401.861 1180.277l4.527-4.528-1.128-1.131-4.528 4.527.226-1.584-1.585-.227-.569 3.962a.8.8 0 0 0 .906.906l3.962-.566-.227-1.585z"/><path id="wnu3o" d="M432.994 1148.016a.792.792 0 0 0-.68-.227l-3.961.566.226 1.585 1.584-.226-4.527 4.527 1.132 1.132 4.527-4.527-.226 1.582 1.585.229.566-3.962a.8.8 0 0 0-.226-.68z"/><path id="wnu3p" d="M407.525 1174.618l-1.132-1.132 1.132-1.132 1.132 1.132z"/><path id="wnu3q" d="M424.504 1157.635l-1.132-1.132 1.132-1.132 1.132 1.132z"/></defs><g><g transform="translate(-392 -1141)"><g><g><g><use fill="#008ddc" xlink:href="#wnu3a"/></g></g></g><g><g><g><use fill="#008ddc" xlink:href="#wnu3b"/></g></g></g><g><g><g><use fill="#008ddc" xlink:href="#wnu3c"/></g></g></g><g><g><g><use fill="#008ddc" xlink:href="#wnu3d"/></g></g></g><g><g><g><use fill="#008ddc" xlink:href="#wnu3e"/></g></g></g><g><g><g><use fill="#008ddc" xlink:href="#wnu3f"/></g></g></g><g><g><g><use fill="#008ddc" xlink:href="#wnu3g"/></g></g></g><g><g><g><use fill="#008ddc" xlink:href="#wnu3h"/></g></g></g><g><g><g><use fill="#008ddc" xlink:href="#wnu3i"/></g></g></g><g><g><g><use fill="#008ddc" xlink:href="#wnu3j"/></g></g></g><g><g><g><use fill="#008ddc" xlink:href="#wnu3k"/></g></g></g><g><g><g><use fill="#008ddc" xlink:href="#wnu3l"/></g></g></g><g><g><g><use fill="#008ddc" xlink:href="#wnu3m"/></g></g></g><g><g><g><use fill="#008ddc" xlink:href="#wnu3n"/></g></g></g><g><g><g><use fill="#008ddc" xlink:href="#wnu3o"/></g></g></g><g><g><g><use fill="#008ddc" xlink:href="#wnu3p"/></g></g></g><g><g><g><use fill="#008ddc" xlink:href="#wnu3q"/></g></g></g></g></g></svg>