<svg xmlns="http://www.w3.org/2000/svg" xmlns:xlink="http://www.w3.org/1999/xlink" width="40" height="40" viewBox="0 0 40 40"><defs><path id="f0pra" d="M973.79 850.635h2.527v1.263h-2.527z"/><path id="f0prb" d="M1004.114 849.371h-2.527v-1.263h2.527zm-6.318-3.158v-.632h10.108v.632a.632.632 0 0 1-.632.631h-8.844a.632.632 0 0 1-.632-.631zm9.476-6.95c.349 0 .632.284.632.632v4.422h-10.108v-4.422c0-.348.283-.632.632-.632zm-24.637 24.006a3.157 3.157 0 1 1-.38-6.292l.415-.05.117-.4a3.808 3.808 0 0 1 3.638-2.734 3.78 3.78 0 0 1 1.983.566l.603.372.3-.643a3.804 3.804 0 0 1 3.431-2.19c2.09 0 3.79 1.7 3.79 3.79 0 .175-.015.36-.05.585l-.094.625.624.094a3.176 3.176 0 0 1 2.68 3.119 3.162 3.162 0 0 1-3.16 3.158zm25.269 7.581h-7.58v-3.79h7.58zm-7.58 5.054v-3.79h7.58v3.79zm-18.953-8.213v5.686h-8.844v-5.686c0-.348.283-.631.632-.631h7.58c.349 0 .632.283.632.631zm1.264 7.581a.632.632 0 0 1-.632.632h-10.108a.632.632 0 0 1-.632-.632v-.631h11.372zm-11.372-22.742v-3.159h7.581v3.159a.632.632 0 0 1-.631.632h-6.318a.632.632 0 0 1-.632-.632zm.632-13.267h6.318c.348 0 .631.284.631.632v.632h-7.58v-.632c0-.348.283-.632.631-.632zm6.95 8.845h-7.582v-6.318h7.581zm28.427 0c1.045 0 1.895-.85 1.895-1.895v-6.318c0-1.045-.85-1.895-1.895-1.895h-8.844c-1.045 0-1.895.85-1.895 1.895v6.318c0 1.044.85 1.895 1.895 1.895h1.895v1.263h-1.263v1.264h3.158v6.317h-2.607a4.417 4.417 0 0 0-1.819-1.076 5.06 5.06 0 0 0-5.05-5.241c-1.729 0-3.336.9-4.256 2.338a5.027 5.027 0 0 0-2.06-.443 5.082 5.082 0 0 0-4.724 3.26c-.48.103-.927.287-1.333.53h-4.683v-1.895h2.527c1.044 0 1.895-.85 1.895-1.895v-12.635c0-1.045-.85-1.895-1.895-1.895h-6.318c-1.045 0-1.895.85-1.895 1.895v12.635c0 1.045.85 1.895 1.895 1.895h2.527v3.159h4.603a4.398 4.398 0 0 0-.614 1.263h-2.725v6.95h-2.527c-1.045 0-1.896.85-1.896 1.895v5.685H970v1.895c0 1.045.85 1.896 1.895 1.896h10.108c1.045 0 1.895-.85 1.895-1.896v-1.895h-1.263v-5.685c0-1.045-.85-1.896-1.896-1.896h-3.79v-5.685h1.264a4.428 4.428 0 0 0 4.422 4.422h13.898a4.425 4.425 0 0 0 4.371-3.79h2.578v5.053h-4.422v11.372h10.107v-11.372h-4.422v-6.317h-3.843a4.373 4.373 0 0 0-.393-1.264h2.973v-7.58h3.159v-1.264h-1.264v-1.263z"/><path id="f0prc" d="M1001.587 868.323h1.263v1.264h-1.263z"/><path id="f0prd" d="M1005.377 873.377h1.264v1.264h-1.264z"/><path id="f0pre" d="M1004.114 868.323h2.527v1.264h-2.527z"/><path id="f0prf" d="M1001.587 873.377h2.527v1.264h-2.527z"/></defs><g><g transform="translate(-970 -838)"><g><use fill="#008ddc" xlink:href="#f0pra"/></g><g><use fill="#008ddc" xlink:href="#f0prb"/></g><g><use fill="#008ddc" xlink:href="#f0prc"/></g><g><use fill="#008ddc" xlink:href="#f0prd"/></g><g><use fill="#008ddc" xlink:href="#f0pre"/></g><g><use fill="#008ddc" xlink:href="#f0prf"/></g></g></g></svg>