<svg xmlns="http://www.w3.org/2000/svg" xmlns:xlink="http://www.w3.org/1999/xlink" width="35" height="34" viewBox="0 0 35 34"><defs><path id="zjria" d="M1228.51 830.736h-31.662v-14.913c0-3.186 2.347-3.532 3.352-3.532h24.958c1.005 0 3.352.346 3.352 3.532zm0 2.685c0 1.06-.328 3.532-3.352 3.532H1200.2c-1.005 0-3.352-.345-3.352-3.532v-1.123h31.662zm-14.08 8.351h-3.502v-3.25h3.502zm-14.23-31.082c-2.339 0-4.842 1.342-4.842 5.102v17.629c0 3.76 2.503 5.102 4.842 5.102h9.238v3.25h-1.535c-.41 0-.745.35-.745.784 0 .434.334.785.745.785h9.834c.412 0 .745-.351.745-.785 0-.433-.333-.785-.745-.785h-1.817v-3.25h9.238c3.568 0 4.842-2.637 4.842-5.101v-17.63c0-3.759-2.503-5.1-4.842-5.1z"/><path id="zjrib" d="M1224.756 814.395a.72.72 0 0 0-1.043.156h.037l-5.558 7.85-2.608-3.571a.734.734 0 0 0-.566-.307.728.728 0 0 0-.58.267l-4.247 5.086-3.114-5.604a.739.739 0 0 0-.634-.384.738.738 0 0 0-.64.376l-5.14 8.752a.814.814 0 0 0 .09 1.106.72.72 0 0 0 1.05-.097.794.794 0 0 0 .126-.224l4.47-7.676 2.98 5.408a.724.724 0 0 0 1.199.125l4.336-5.11 2.66 3.642a.848.848 0 0 0 .595.306.733.733 0 0 0 .589-.313l6.146-8.69a.813.813 0 0 0-.148-1.098z"/></defs><g><g transform="translate(-1195 -810)"><g><g><g><use fill="#fff" xlink:href="#zjria"/></g></g></g><g><g><g><use fill="#fff" xlink:href="#zjrib"/></g></g></g></g></g></svg>