<svg xmlns="http://www.w3.org/2000/svg" xmlns:xlink="http://www.w3.org/1999/xlink" width="41" height="32" viewBox="0 0 41 32"><defs><path id="tru2a" d="M1024.718 512.188a2.726 2.726 0 0 1-2.723 2.723h-30.981a2.726 2.726 0 0 1-2.723-2.723v-21.166a2.726 2.726 0 0 1 2.723-2.723h30.972a2.726 2.726 0 0 1 2.723 2.723v21.166zM1021.995 486h-30.981a5.018 5.018 0 0 0-5.014 5.014v21.174a5.018 5.018 0 0 0 5.014 5.014h30.972a5.018 5.018 0 0 0 5.014-5.014v-21.166a5.013 5.013 0 0 0-5.005-5.022z"/><path id="tru2b" d="M1011.857 501.338l10.028-8.992a1.15 1.15 0 0 0 .084-1.62 1.15 1.15 0 0 0-1.62-.086l-13.828 12.412-2.697-2.41c-.009-.008-.017-.017-.017-.025-.06-.06-.12-.11-.187-.161l-10.978-9.824a1.144 1.144 0 0 0-1.62.093 1.144 1.144 0 0 0 .093 1.62l10.147 9.07-10.104 9.458a1.15 1.15 0 0 0 1.57 1.68l10.256-9.595 2.782 2.486a1.145 1.145 0 0 0 1.527-.009l2.86-2.562 10.196 9.688c.22.212.509.314.789.314a1.144 1.144 0 0 0 .789-1.976z"/></defs><g><g transform="translate(-986 -486)"><g><g><use fill="#008ddc" xlink:href="#tru2a"/></g><g><use fill="#008ddc" xlink:href="#tru2b"/></g></g></g></g></svg>