<svg xmlns="http://www.w3.org/2000/svg" xmlns:xlink="http://www.w3.org/1999/xlink" width="24" height="24" viewBox="0 0 24 24"><defs><path id="vum2a" d="M1008.622 2112.321c-.239.815-.992.829-1.243 0-.289-.956-1.316-4.585-1.316-6.942 0-3.11 3.891-3.125 3.891 0-.001 2.371-1.083 6.094-1.332 6.942zm-.622 6.339c-.938 0-1.58-.723-1.58-1.66 0-.964.669-1.66 1.58-1.66.963 0 1.58.696 1.58 1.66 0 .938-.617 1.66-1.58 1.66zm0-19.66c-6.627 0-12 5.373-12 12s5.373 12 12 12 12-5.373 12-12-5.373-12-12-12z"/></defs><g><g transform="translate(-996 -2099)"><use fill="#082344" xlink:href="#vum2a"/></g></g></svg>