<svg xmlns="http://www.w3.org/2000/svg" xmlns:xlink="http://www.w3.org/1999/xlink" width="10" height="19" viewBox="0 0 10 19"><defs><path id="ollia" d="M1198.094 3220.803l-2.266-.003c-2.547 0-4.193 1.688-4.193 4.301v1.984h-2.279a.356.356 0 0 0-.356.356v2.874c0 .197.16.356.356.356h2.28v7.252c0 .196.159.356.356.356h2.973c.197 0 .357-.16.357-.356v-7.252h2.664c.197 0 .357-.159.357-.356v-2.874a.357.357 0 0 0-.356-.356h-2.665v-1.682c0-.808.192-1.218 1.245-1.218h1.527c.197 0 .356-.16.356-.357v-2.668a.357.357 0 0 0-.356-.357z"/></defs><g><g transform="translate(-1189 -3220)"><use fill="#fff" xlink:href="#ollia"/></g></g></svg>