<svg xmlns="http://www.w3.org/2000/svg" xmlns:xlink="http://www.w3.org/1999/xlink" width="48" height="48" viewBox="0 0 48 48"><defs><path id="momaa" d="M1011.067 1147.34v-3.634l3.974 3.635zm6.878.54c-.01-.026-.017-.05-.03-.075a.788.788 0 0 0-.172-.232l-6.934-6.34a.873.873 0 0 0-.253-.16c-.028-.01-.054-.017-.082-.025a.894.894 0 0 0-.222-.041c-.016.002-.033-.007-.052-.007h-27.733c-.479 0-.867.355-.867.793v14.266h1.733v-13.474h26v5.548c0 .438.388.793.867.793h6.067v33.289h-25.134v1.585h26c.479 0 .867-.355.867-.793v-34.874c0-.016-.01-.031-.01-.048a.722.722 0 0 0-.045-.206z"/><path id="momab" d="M1000.667 1171.313h12.133v1.733h-12.133z"/><path id="momac" d="M993.692 1171.313h6.934v1.733h-6.934z"/><path id="momad" d="M993.733 1166.526h19.067v1.734h-19.067z"/><path id="momae" d="M988.88 1156.954h8.667v1.733h-8.667z"/><path id="momaf" d="M997.2 1156.954h15.6v1.733h-15.6z"/><path id="momag" d="M1004.133 1161.74h8.667v1.734h-8.667z"/><path id="momah" d="M995.173 1161.74h8.667v1.734h-8.667z"/><path id="momai" d="M988.514 1152.168h15.6v1.733h-15.6z"/><path id="momaj" d="M1004.133 1152.168h8.667v1.733h-8.667z"/><path id="momak" d="M993.273 1176.099h13.866v1.733h-13.866z"/><path id="momal" d="M989.022 1147.933h5.2v1.734h-5.2z"/><path id="momam" d="M995.448 1147.933h3.466v1.734h-3.466z"/><path id="moman" d="M992.475 1164.733l-1.486 22.534H975.01l-1.485-22.534zM971.733 1163v-1.733h22.534V1163zm7.8-5.2h6.934v1.733h-6.934zM991.8 1189a.867.867 0 0 0 .867-.81l1.544-23.457h.922a.867.867 0 0 0 .867-.866v-3.467a.867.867 0 0 0-.867-.867H988.2v-2.6a.867.867 0 0 0-.867-.866h-8.666a.867.867 0 0 0-.867.866v2.6h-6.933a.867.867 0 0 0-.867.867v3.467c0 .478.388.866.867.866h.922l1.546 23.457c.03.456.408.81.865.81z"/><path id="momao" d="M982.763 1166.467h1.734v19.066h-1.734z"/><path id="momap" d="M979.572 1166.467h1.734v19.066h-1.734z"/><path id="momaq" d="M976.068 1166.506l1.732-.079.867 19.067-1.732.08z"/><path id="momar" d="M985.93 1185.494l.867-19.067 1.732.08-.867 19.066z"/></defs><g><g transform="translate(-970 -1141)"><g><use fill="#008ddc" xlink:href="#momaa"/></g><g><use fill="#008ddc" xlink:href="#momab"/></g><g><use fill="#008ddc" xlink:href="#momac"/></g><g><use fill="#008ddc" xlink:href="#momad"/></g><g><use fill="#008ddc" xlink:href="#momae"/></g><g><use fill="#008ddc" xlink:href="#momaf"/></g><g><use fill="#008ddc" xlink:href="#momag"/></g><g><use fill="#008ddc" xlink:href="#momah"/></g><g><use fill="#008ddc" xlink:href="#momai"/></g><g><use fill="#008ddc" xlink:href="#momaj"/></g><g><use fill="#008ddc" xlink:href="#momak"/></g><g><use fill="#008ddc" xlink:href="#momal"/></g><g><use fill="#008ddc" xlink:href="#momam"/></g><g><use fill="#008ddc" xlink:href="#moman"/></g><g><use fill="#008ddc" xlink:href="#momao"/></g><g><use fill="#008ddc" xlink:href="#momap"/></g><g><use fill="#008ddc" xlink:href="#momaq"/></g><g><use fill="#008ddc" xlink:href="#momar"/></g></g></g></svg>