<svg xmlns="http://www.w3.org/2000/svg" xmlns:xlink="http://www.w3.org/1999/xlink" width="47" height="39" viewBox="0 0 47 39"><defs><path id="2vtua" d="M430.519 1135.484a.444.444 0 0 1-.427.327H395.01a.433.433 0 0 1-.35-.174c-.05-.064-.126-.2-.097-.32l.788-2.161 7.18-19.683.02-.065a.444.444 0 0 1 .427-.326h35.082c.297 0 .373.427.393.641zm-35.951-34.37c0-.316.257-.573.573-.573h13.915l2.799 3.919h-11.342l-5.162 5.162v18.877l-.783 2.138zm3.46 8.049l2.026-2.027v2.027zm36.512-3.135v5.486h-6.27v-2.351a.784.784 0 1 0-1.567 0v2.351h-3.92v-2.351a.784.784 0 1 0-1.567 0v2.351h-3.919v-2.351a.784.784 0 1 0-1.567 0v2.351h-3.92v-2.351a.784.784 0 1 0-1.567 0v2.351h-3.919v-2.351a.784.784 0 1 0-1.567 0v2.351h-1.779c-.112 0-.222.01-.33.027-.764.127-1.4.684-1.59 1.394l-.248.682-3.891 10.667v-13.554h4.703v-4.702zm3.52 5.486h-1.952v-7.054h-22.326l-3.919-5.487h-14.722c-1.18 0-2.141.961-2.141 2.142v34.24h.005c-.004.442.133.874.409 1.235.384.502.965.789 1.596.789h35.082c.906 0 1.704-.61 1.92-1.421l8.015-21.976v-.139c0-1.35-.828-2.329-1.967-2.329z"/></defs><g><g transform="translate(-393 -1099)"><use fill="#008ddc" xlink:href="#2vtua"/></g></g></svg>