<svg xmlns="http://www.w3.org/2000/svg" xmlns:xlink="http://www.w3.org/1999/xlink" width="49" height="43" viewBox="0 0 49 43"><defs><path id="1a4ta" d="M421.924 873.372a34.798 34.798 0 0 1-5.707.457 28.49 28.49 0 0 1-11.343-2.088l-.696 1.518a29.765 29.765 0 0 0 12.039 2.24 36.492 36.492 0 0 0 5.983-.48z"/><path id="1a4tb" d="M401.837 869.604l-1.302 1.046a7.965 7.965 0 0 0 1.864 1.636l.918-1.397a6.35 6.35 0 0 1-1.48-1.285z"/><path id="1a4tc" d="M418.722 846.273c0 .208-.889.835-2.505.835-1.617 0-2.505-.627-2.505-.835 0-.208.888-.835 2.505-.835 1.616 0 2.505.627 2.505.835zm17.378.815l-15.919-1.592c-.522-1.021-2.044-1.728-3.964-1.728-2.381 0-4.175 1.077-4.175 2.505s1.794 2.505 4.175 2.505c1.846 0 3.328-.652 3.906-1.61l13.18 1.318-17.086 8.544-21.514-10.757 21.514-10.757 21.513 10.757zm1.43 20.896h-2.544l1.013-2.531c.083.008.167.025.258.025.092 0 .173-.017.26-.025zm-1.273-5.846a.835.835 0 1 1 0 1.67.835.835 0 0 1 0-1.67zm-6.68-1.67c0 2.823-5.368 5.845-13.36 5.845-7.992 0-13.36-3.022-13.36-5.845v-8.252l12.986 6.499a.835.835 0 0 0 .747 0l12.987-6.499zm0 4.175c0 2.824-5.368 5.846-13.36 5.846-7.992 0-13.36-3.022-13.36-5.846v-.69c2.473 2.413 7.465 4.03 13.36 4.03 5.894 0 10.886-1.617 13.36-4.03zm10.769-18.739a.835.835 0 0 0-.375-.374v-.004l-23.381-11.69a.835.835 0 0 0-.746 0l-23.381 11.69a.835.835 0 0 0 0 1.494l8.723 4.362v13.262c0 4.214 6.603 7.515 15.03 7.515 8.429 0 15.031-3.301 15.031-7.515V851.38l4.175-2.087v11.328a2.494 2.494 0 0 0-.938 4.118l-1.503 3.769a.835.835 0 0 0 .771 1.145h5.01a.835.835 0 0 0 .776-1.145l-1.503-3.769a2.494 2.494 0 0 0-.942-4.118v-12.163l2.878-1.435a.835.835 0 0 0 .375-1.12z"/><path id="1a4td" d="M436.718 842.423l-1.67-.835.747-1.493 1.67.835z"/><path id="1a4te" d="M433.378 840.756l-12.525-6.262.747-1.494 12.525 6.263z"/></defs><g><g transform="translate(-392 -833)"><g><g><g><use fill="#008ddc" xlink:href="#1a4ta"/></g></g></g><g><g><g><use fill="#008ddc" xlink:href="#1a4tb"/></g></g></g><g><g><g><use fill="#008ddc" xlink:href="#1a4tc"/></g></g></g><g><g><g><use fill="#008ddc" xlink:href="#1a4td"/></g></g></g><g><g><g><use fill="#008ddc" xlink:href="#1a4te"/></g></g></g></g></g></svg>