<svg xmlns="http://www.w3.org/2000/svg" xmlns:xlink="http://www.w3.org/1999/xlink" width="21" height="20" viewBox="0 0 21 20"><defs><path id="ncr4a" d="M1212.915 3238.537h4.381v-13.183h-4.381zm2.218-19.537c-1.498 0-2.48.983-2.48 2.28 0 1.261.953 2.278 2.424 2.278h.026c1.532 0 2.481-1.017 2.481-2.278-.03-1.297-.949-2.28-2.45-2.28zm12.917 6.046c-2.328 0-3.365 1.28-3.95 2.178v.045h-.025c.006-.017.019-.03.025-.045v-1.869h-4.38c.058 1.237 0 13.181 0 13.181h4.379v-7.361c0-.391.035-.787.15-1.07.32-.786 1.035-1.602 2.248-1.602 1.586 0 2.218 1.206 2.218 2.98v7.054h4.384v-7.557c0-4.05-2.16-5.934-5.049-5.934z"/></defs><g><g transform="translate(-1212 -3219)"><use fill="#fff" xlink:href="#ncr4a"/></g></g></svg>