<svg xmlns="http://www.w3.org/2000/svg" xmlns:xlink="http://www.w3.org/1999/xlink" width="40" height="40" viewBox="0 0 40 40"><defs><path id="5tmla" d="M694.413 847.184h15.506a.658.658 0 1 0 0-1.316h-15.506a.658.658 0 1 0 0 1.316z"/><path id="5tmlb" d="M694.413 857.052h15.506a.658.658 0 1 0 0-1.316h-15.506a.658.658 0 1 0 0 1.316z"/><path id="5tmlc" d="M694.413 866.92h15.506a.658.658 0 1 0 0-1.316h-15.506a.658.658 0 1 0 0 1.315z"/><path id="5tmld" d="M717.156 874.156h-36.84v-36.84h36.84zm.658-38.156h-38.156a.658.658 0 0 0-.658.658v38.156c0 .364.295.658.658.658h38.156a.658.658 0 0 0 .658-.658v-38.156a.658.658 0 0 0-.658-.658z"/><path id="5tmle" d="M687.224 848.153l1.597-.84 1.598.84-.305-1.779 1.292-1.26-1.786-.26-.799-1.618-.798 1.619-1.786.259 1.292 1.26z"/><path id="5tmlf" d="M687.224 858.076l1.597-.84 1.598.84-.305-1.779 1.292-1.26-1.786-.26-.799-1.618-.798 1.618-1.786.26 1.292 1.26z"/><path id="5tmlg" d="M687.224 868.235l1.597-.84 1.598.84-.305-1.779 1.292-1.26-1.786-.26-.799-1.618-.798 1.619-1.786.26 1.292 1.26z"/></defs><g><g transform="translate(-679 -836)"><g><use fill="#008ddc" xlink:href="#5tmla"/></g><g><use fill="#008ddc" xlink:href="#5tmlb"/></g><g><use fill="#008ddc" xlink:href="#5tmlc"/></g><g><use fill="#008ddc" xlink:href="#5tmld"/></g><g><use fill="#008ddc" xlink:href="#5tmle"/></g><g><use fill="#008ddc" xlink:href="#5tmlf"/></g><g><use fill="#008ddc" xlink:href="#5tmlg"/></g></g></g></svg>