<svg xmlns="http://www.w3.org/2000/svg" xmlns:xlink="http://www.w3.org/1999/xlink" width="32" height="47" viewBox="0 0 32 47"><defs><path id="8wq7a" d="M414.382 498.635a176.678 176.678 0 0 1-6.106 10.099l-1.193 1.809-1.193-1.809c-.126-.19-3.107-4.723-6.107-10.099-4.136-7.41-6.233-12.7-6.233-15.718 0-7.461 6.07-13.532 13.533-13.532 7.461 0 13.532 6.07 13.532 13.532 0 3.02-2.097 8.307-6.233 15.718zm-7.3-31.635c-8.776 0-15.917 7.14-15.917 15.917 0 3.527 2.077 8.891 6.535 16.88a181.32 181.32 0 0 0 6.198 10.25l2.19 3.318a1.192 1.192 0 0 0 1.99 0l2.189-3.317c.126-.192 3.133-4.757 6.198-10.25 4.459-7.99 6.535-13.353 6.535-16.88 0-8.778-7.14-15.918-15.917-15.918z"/><path id="8wq7b" d="M407.083 489.258a6.447 6.447 0 0 1-6.44-6.44 6.447 6.447 0 0 1 6.44-6.44 6.447 6.447 0 0 1 6.44 6.44 6.447 6.447 0 0 1-6.44 6.44zm0-15.265c-4.867 0-8.826 3.959-8.826 8.825s3.96 8.825 8.826 8.825c4.866 0 8.825-3.959 8.825-8.825s-3.96-8.825-8.825-8.825z"/></defs><g><g transform="translate(-391 -467)"><g><g><use fill="#008ddc" xlink:href="#8wq7a"/></g><g><use fill="#008ddc" xlink:href="#8wq7b"/></g></g></g></g></svg>