<svg xmlns="http://www.w3.org/2000/svg" xmlns:xlink="http://www.w3.org/1999/xlink" width="48" height="48" viewBox="0 0 48 48"><defs><path id="xqxja" d="M1305.868 1155.347a1.568 1.568 0 0 1-1.566-1.566c0-.864.702-1.566 1.566-1.566.864 0 1.566.702 1.566 1.566 0 .864-.702 1.566-1.566 1.566zm0-4.698a3.135 3.135 0 0 0-3.132 3.132 3.135 3.135 0 0 0 3.132 3.132 3.135 3.135 0 0 0 3.132-3.132 3.135 3.135 0 0 0-3.132-3.132z"/><path id="xqxjb" d="M1264.132 1181.97a1.568 1.568 0 0 1-1.566-1.566c0-.864.702-1.566 1.566-1.566.864 0 1.566.702 1.566 1.566 0 .864-.702 1.566-1.566 1.566zm0-4.698a3.135 3.135 0 0 0-3.132 3.132 3.135 3.135 0 0 0 3.132 3.132 3.135 3.135 0 0 0 3.132-3.132 3.135 3.135 0 0 0-3.132-3.132z"/><path id="xqxjc" d="M1304.35 1151.404l-6.756-3.262a.782.782 0 1 0-.68 1.41l6.755 3.262a.781.781 0 0 0 1.045-.365.783.783 0 0 0-.364-1.045z"/><path id="xqxjd" d="M1297.04 1187.451a1.568 1.568 0 0 1-1.567-1.566c0-.863.702-1.566 1.566-1.566.864 0 1.566.703 1.566 1.566 0 .864-.702 1.566-1.566 1.566zm0-4.698a3.135 3.135 0 0 0-3.133 3.132 3.135 3.135 0 0 0 3.132 3.133 3.135 3.135 0 0 0 3.132-3.133 3.135 3.135 0 0 0-3.132-3.132z"/><path id="xqxje" d="M1295.399 1183.743l-6.756-3.261a.783.783 0 0 0-.68 1.41l6.755 3.261a.782.782 0 0 0 1.045-.365.783.783 0 0 0-.364-1.045z"/><path id="xqxjf" d="M1285 1167.386a1.568 1.568 0 0 1-1.566-1.566c0-.864.702-1.566 1.566-1.566.864 0 1.566.702 1.566 1.566 0 .864-.702 1.566-1.566 1.566zm0-4.698a3.135 3.135 0 0 0-3.132 3.132 3.135 3.135 0 0 0 3.132 3.132 3.135 3.135 0 0 0 3.132-3.132 3.135 3.135 0 0 0-3.132-3.132z"/><path id="xqxjg" d="M1283.51 1163.68l-5.188-4.044a.784.784 0 0 0-.963 1.236l5.189 4.044a.781.781 0 0 0 1.099-.136.784.784 0 0 0-.136-1.1z"/><path id="xqxjh" d="M1299.604 1177.734a7.055 7.055 0 0 1-7.048-7.048 7.055 7.055 0 0 1 7.048-7.047 7.055 7.055 0 0 1 7.047 7.047 7.055 7.055 0 0 1-7.047 7.048zm0-15.661c-4.75 0-8.614 3.864-8.614 8.613 0 4.75 3.864 8.614 8.614 8.614 4.749 0 8.613-3.864 8.613-8.614 0-4.749-3.864-8.613-8.613-8.613z"/><path id="xqxji" d="M1299.604 1169.794a1.568 1.568 0 0 1-1.567-1.566 1.568 1.568 0 0 1 3.132 0c0 .864-.702 1.566-1.565 1.566zm0-4.698a3.135 3.135 0 0 0-3.133 3.132 3.135 3.135 0 0 0 3.133 3.132 3.135 3.135 0 0 0 3.132-3.132 3.135 3.135 0 0 0-3.132-3.132z"/><path id="xqxjj" d="M1302.736 1177.08a7.1 7.1 0 0 1-6.265 0v-1.596c0-.439.386-.796.86-.796h4.544c.475 0 .86.357.86.796v1.596zm-.86-3.958h-4.544c-1.338 0-2.427 1.06-2.427 2.36v2.065c0 .28.149.538.391.678a8.613 8.613 0 0 0 4.308 1.161 8.613 8.613 0 0 0 4.307-1.161.782.782 0 0 0 .39-.677v-2.064c0-1.303-1.088-2.362-2.426-2.362z"/><path id="xqxjk" d="M1280.141 1187.451a7.055 7.055 0 0 1-7.047-7.047 7.055 7.055 0 0 1 7.047-7.047 7.055 7.055 0 0 1 7.047 7.047 7.055 7.055 0 0 1-7.047 7.047zm0-15.66c-4.75 0-8.613 3.864-8.613 8.613 0 4.75 3.864 8.614 8.613 8.614 4.75 0 8.614-3.865 8.614-8.614 0-4.75-3.865-8.613-8.614-8.613z"/><path id="xqxjl" d="M1280.184 1179.425a1.568 1.568 0 0 1-1.566-1.566c0-.863.703-1.566 1.566-1.566.864 0 1.566.703 1.566 1.566 0 .864-.702 1.566-1.566 1.566zm0-4.698a3.135 3.135 0 0 0-3.132 3.132 3.135 3.135 0 0 0 3.132 3.132 3.135 3.135 0 0 0 3.132-3.132 3.135 3.135 0 0 0-3.132-3.132z"/><path id="xqxjm" d="M1283.307 1186.711a7.1 7.1 0 0 1-6.265 0v-1.596c0-.439.386-.796.86-.796h4.544c.475 0 .86.357.86.796v1.596zm-.86-3.958h-4.544c-1.338 0-2.427 1.06-2.427 2.361v2.064c0 .28.15.538.391.678a8.612 8.612 0 0 0 4.308 1.162 8.613 8.613 0 0 0 4.307-1.162.782.782 0 0 0 .39-.677v-2.064c0-1.302-1.088-2.362-2.426-2.362z"/><path id="xqxjn" d="M1269.613 1167.206a7.055 7.055 0 0 1-7.047-7.047 7.055 7.055 0 0 1 7.047-7.048 7.055 7.055 0 0 1 7.048 7.048 7.055 7.055 0 0 1-7.048 7.047zm0-15.66c-4.749 0-8.613 3.863-8.613 8.613 0 4.749 3.864 8.613 8.613 8.613 4.75 0 8.614-3.864 8.614-8.613 0-4.75-3.864-8.614-8.614-8.614z"/><path id="xqxjo" d="M1269.613 1159.36a1.568 1.568 0 0 1-1.566-1.566c0-.864.703-1.566 1.566-1.566.864 0 1.567.702 1.567 1.566 0 .864-.703 1.566-1.567 1.566zm0-4.698a3.135 3.135 0 0 0-3.132 3.132 3.135 3.135 0 0 0 3.132 3.132 3.135 3.135 0 0 0 3.133-3.132 3.135 3.135 0 0 0-3.133-3.132z"/><path id="xqxjp" d="M1272.746 1166.646a7.1 7.1 0 0 1-6.265 0v-1.596c0-.439.386-.796.86-.796h4.544c.474 0 .86.357.86.796v1.596zm-.861-3.958h-4.543c-1.338 0-2.427 1.06-2.427 2.36v2.065c0 .28.149.538.391.678a8.613 8.613 0 0 0 4.307 1.161 8.613 8.613 0 0 0 4.308-1.16.782.782 0 0 0 .39-.678v-2.064c0-1.302-1.088-2.362-2.426-2.362z"/><path id="xqxjq" d="M1289.05 1156.678a7.055 7.055 0 0 1-7.048-7.047 7.055 7.055 0 0 1 7.047-7.047 7.055 7.055 0 0 1 7.048 7.047 7.055 7.055 0 0 1-7.048 7.047zm0-15.66c-4.75 0-8.614 3.864-8.614 8.613 0 4.75 3.864 8.614 8.613 8.614 4.75 0 8.614-3.865 8.614-8.614 0-4.75-3.865-8.613-8.614-8.613z"/><path id="xqxjr" d="M1289.013 1148.848a1.568 1.568 0 0 1-1.566-1.566c0-.864.702-1.566 1.566-1.566.864 0 1.566.702 1.566 1.566 0 .864-.702 1.566-1.566 1.566zm0-4.698a3.135 3.135 0 0 0-3.132 3.132 3.135 3.135 0 0 0 3.132 3.132 3.135 3.135 0 0 0 3.132-3.132 3.135 3.135 0 0 0-3.132-3.132z"/><path id="xqxjs" d="M1292.153 1156.212a7.1 7.1 0 0 1-6.264 0v-1.596c0-.439.386-.796.86-.796h4.544c.474 0 .86.357.86.796v1.596zm-.86-3.958h-4.543c-1.339 0-2.427 1.06-2.427 2.361v2.064c0 .28.149.538.39.678a8.613 8.613 0 0 0 4.308 1.161 8.613 8.613 0 0 0 4.308-1.16.782.782 0 0 0 .39-.678v-2.064c0-1.302-1.088-2.362-2.426-2.362z"/><path id="xqxjt" d="M1281.512 1149.317a.784.784 0 0 0-1.104-.086l-5.427 4.644a.783.783 0 1 0 1.018 1.19l5.427-4.644a.783.783 0 0 0 .086-1.104z"/><path id="xqxju" d="M1299.212 1162.057l-4.698-6.264a.783.783 0 0 0-1.253.938l4.698 6.265a.783.783 0 0 0 1.253-.939z"/><path id="xqxjv" d="M1292.628 1173.334a.783.783 0 0 0-1.096-.156l-4.374 3.28a.782.782 0 1 0 .94 1.252l4.374-3.28a.782.782 0 0 0 .156-1.096z"/><path id="xqxjw" d="M1271.963 1179.446h-5.482a.783.783 0 1 0 0 1.566h5.482a.783.783 0 1 0 0-1.566z"/><path id="xqxjx" d="M1269.613 1145.716a1.568 1.568 0 0 1-1.566-1.566c0-.864.703-1.566 1.566-1.566.864 0 1.567.702 1.567 1.566 0 .863-.703 1.566-1.567 1.566zm0-4.698a3.135 3.135 0 0 0-3.132 3.132 3.135 3.135 0 0 0 3.132 3.132 3.135 3.135 0 0 0 3.133-3.132 3.135 3.135 0 0 0-3.133-3.132z"/><path id="xqxjy" d="M1269.613 1145.716a.783.783 0 0 0-.783.783v5.481a.783.783 0 1 0 1.566 0v-5.481a.783.783 0 0 0-.783-.783z"/></defs><g><g transform="translate(-1261 -1141)"><g><g><g><use fill="#008ddc" xlink:href="#xqxja"/></g></g></g><g><g><g><use fill="#008ddc" xlink:href="#xqxjb"/></g></g></g><g><g><g><use fill="#008ddc" xlink:href="#xqxjc"/></g></g></g><g><g><g><use fill="#008ddc" xlink:href="#xqxjd"/></g></g></g><g><g><g><use fill="#008ddc" xlink:href="#xqxje"/></g></g></g><g><g><g><use fill="#008ddc" xlink:href="#xqxjf"/></g></g></g><g><g><g><use fill="#008ddc" xlink:href="#xqxjg"/></g></g></g><g><g><g><use fill="#008ddc" xlink:href="#xqxjh"/></g></g></g><g><g><g><use fill="#008ddc" xlink:href="#xqxji"/></g></g></g><g><g><g><use fill="#008ddc" xlink:href="#xqxjj"/></g></g></g><g><g><g><use fill="#008ddc" xlink:href="#xqxjk"/></g></g></g><g><g><g><use fill="#008ddc" xlink:href="#xqxjl"/></g></g></g><g><g><g><use fill="#008ddc" xlink:href="#xqxjm"/></g></g></g><g><g><g><use fill="#008ddc" xlink:href="#xqxjn"/></g></g></g><g><g><g><use fill="#008ddc" xlink:href="#xqxjo"/></g></g></g><g><g><g><use fill="#008ddc" xlink:href="#xqxjp"/></g></g></g><g><g><g><use fill="#008ddc" xlink:href="#xqxjq"/></g></g></g><g><g><g><use fill="#008ddc" xlink:href="#xqxjr"/></g></g></g><g><g><g><use fill="#008ddc" xlink:href="#xqxjs"/></g></g></g><g><g><g><use fill="#008ddc" xlink:href="#xqxjt"/></g></g></g><g><g><g><use fill="#008ddc" xlink:href="#xqxju"/></g></g></g><g><g><g><use fill="#008ddc" xlink:href="#xqxjv"/></g></g></g><g><g><g><use fill="#008ddc" xlink:href="#xqxjw"/></g></g></g><g><g><g><use fill="#008ddc" xlink:href="#xqxjx"/></g></g></g><g><g><g><use fill="#008ddc" xlink:href="#xqxjy"/></g></g></g></g></g></svg>