<svg xmlns="http://www.w3.org/2000/svg" xmlns:xlink="http://www.w3.org/1999/xlink" width="41" height="41" viewBox="0 0 41 41"><defs><path id="lth5a" d="M1284.308 852.445a.686.686 0 0 0 .92.298c.04-.02 4.063-2.063 6.047-2.69a.683.683 0 0 0-.413-1.304c-2.09.661-6.085 2.69-6.254 2.777a.684.684 0 0 0-.3.919z"/><path id="lth5b" d="M1284.919 844.618c.103 0 .21-.024.31-.075.04-.02 4.062-2.064 6.046-2.69a.683.683 0 0 0-.413-1.304c-2.09.66-6.085 2.69-6.254 2.776a.684.684 0 0 0 .31 1.293z"/><path id="lth5c" d="M1301.319 843.25a.683.683 0 0 0-.684.684v26.652c0 1.13-.92 2.05-2.05 2.05h-16.4v-1.573c.996-.348 3.591-1.16 6.15-1.16 5.953 0 9.995 1.317 10.035 1.331a.683.683 0 0 0 .899-.649v-30.068a.682.682 0 0 0-.536-.667s-.535-.12-1.451-.287a.684.684 0 0 0-.247 1.344c.349.064.641.12.867.166v28.604c-1.549-.406-4.987-1.142-9.567-1.142-2.978 0-5.903.978-6.807 1.31-.805-.356-3.236-1.31-6.177-1.31-4.707 0-8.585.777-10.25 1.171v-28.66c1.364-.335 5.394-1.212 10.25-1.212 2.491 0 4.628.776 5.467 1.126v26.892a.683.683 0 0 0 1.035.586c.068-.04 6.838-4.085 12.848-6.088a.683.683 0 0 0 .467-.648v-28.018a.683.683 0 0 0-.924-.64c-5.467 2.05-11 5.493-11.055 5.527a.683.683 0 0 0 .724 1.16c.05-.033 4.864-3.027 9.889-5.048v26.53c-4.665 1.62-9.535 4.267-11.618 5.452v-26.148a.684.684 0 0 0-.378-.611c-.117-.058-2.918-1.439-6.455-1.439-6.175 0-10.923 1.336-11.122 1.394a.683.683 0 0 0-.496.656v30.069a.686.686 0 0 0 .684.683.673.673 0 0 0 .187-.027c.047-.013 4.773-1.34 10.747-1.34 2.498 0 4.633.778 5.467 1.127v1.607h-16.401c-1.13 0-2.05-.92-2.05-2.05v-26.652a.684.684 0 0 0-1.367 0v26.652a3.42 3.42 0 0 0 3.417 3.416h34.168a3.42 3.42 0 0 0 3.417-3.416v-26.652a.683.683 0 0 0-.683-.683z"/><path id="lth5d" d="M1284.308 848.345a.686.686 0 0 0 .92.298c.04-.02 4.063-2.064 6.047-2.69a.683.683 0 0 0-.413-1.304c-2.09.66-6.085 2.69-6.254 2.777a.684.684 0 0 0-.3.919z"/><path id="lth5e" d="M1284.308 856.545a.686.686 0 0 0 .92.299c.04-.02 4.063-2.064 6.047-2.69a.683.683 0 0 0-.413-1.305c-2.09.661-6.085 2.69-6.254 2.777a.684.684 0 0 0-.3.92z"/><path id="lth5f" d="M1277.557 845.682c-4.22-.99-9.015.272-9.217.326a.684.684 0 0 0 .354 1.32c.046-.013 4.663-1.227 8.551-.315a.683.683 0 0 0 .312-1.33z"/><path id="lth5g" d="M1277.557 849.783c-4.22-.99-9.015.27-9.217.325a.684.684 0 0 0 .354 1.32c.046-.013 4.663-1.227 8.551-.315a.683.683 0 1 0 .312-1.33z"/><path id="lth5h" d="M1284.308 860.645a.686.686 0 0 0 .92.299c.04-.02 4.063-2.064 6.047-2.69a.683.683 0 0 0-.413-1.304c-2.09.66-6.085 2.69-6.254 2.776a.684.684 0 0 0-.3.92z"/><path id="lth5i" d="M1277.557 853.883c-4.22-.99-9.015.27-9.217.325a.684.684 0 0 0 .354 1.32c.046-.013 4.663-1.227 8.551-.315a.683.683 0 1 0 .312-1.33z"/><path id="lth5j" d="M1277.557 862.083c-4.22-.99-9.015.271-9.217.325a.684.684 0 0 0 .354 1.32c.046-.012 4.663-1.227 8.551-.314a.683.683 0 1 0 .312-1.33z"/><path id="lth5k" d="M1277.557 857.983c-4.22-.99-9.015.27-9.217.325a.684.684 0 0 0 .354 1.32c.046-.012 4.663-1.227 8.551-.315a.683.683 0 1 0 .312-1.33z"/></defs><g><g transform="translate(-1261 -833)"><g><g><g><use fill="#008ddc" xlink:href="#lth5a"/></g><g><use fill="#008ddc" xlink:href="#lth5b"/></g><g><use fill="#008ddc" xlink:href="#lth5c"/></g><g><use fill="#008ddc" xlink:href="#lth5d"/></g><g><use fill="#008ddc" xlink:href="#lth5e"/></g><g><use fill="#008ddc" xlink:href="#lth5f"/></g><g><use fill="#008ddc" xlink:href="#lth5g"/></g><g><use fill="#008ddc" xlink:href="#lth5h"/></g><g><use fill="#008ddc" xlink:href="#lth5i"/></g><g><use fill="#008ddc" xlink:href="#lth5j"/></g><g><use fill="#008ddc" xlink:href="#lth5k"/></g></g></g></g></g></svg>