<svg xmlns="http://www.w3.org/2000/svg" xmlns:xlink="http://www.w3.org/1999/xlink" width="17" height="17" viewBox="0 0 17 17"><defs><path id="ksita" d="M1359.848 61.409a.788.788 0 0 1-.242.69l-2.295 2.278a1.292 1.292 0 0 1-.405.293c-.167.08-.331.132-.492.155a1.71 1.71 0 0 0-.104.009 2.347 2.347 0 0 1-.224.009c-.219 0-.572-.038-1.061-.113-.49-.074-1.087-.259-1.795-.552-.707-.293-1.51-.733-2.407-1.32-.897-.586-1.852-1.392-2.864-2.416-.806-.793-1.473-1.553-2.002-2.277a16.229 16.229 0 0 1-1.277-2.01 10.827 10.827 0 0 1-.725-1.674 8.88 8.88 0 0 1-.327-1.295 4.273 4.273 0 0 1-.07-.854c.012-.207.018-.322.018-.345.023-.16.075-.325.155-.492.08-.166.178-.302.293-.405l2.295-2.295a.76.76 0 0 1 .553-.242c.15 0 .281.044.396.13a1.2 1.2 0 0 1 .294.319l1.846 3.503a.84.84 0 0 1 .086.604 1.076 1.076 0 0 1-.293.552l-.845.846a.288.288 0 0 0-.06.112.426.426 0 0 0-.027.13c.046.24.15.517.31.827.139.276.352.613.64 1.01.287.397.695.854 1.224 1.372.518.529.978.94 1.38 1.233.403.294.74.51 1.01.647.27.139.478.222.622.25l.215.044c.023 0 .06-.009.112-.026a.288.288 0 0 0 .113-.06l.983-1.001c.207-.184.449-.276.725-.276.196 0 .35.034.466.103h.017l3.33 1.967c.242.15.386.34.432.57z"/></defs><g><g transform="translate(-1343 -48)"><use fill="#008ddc" xlink:href="#ksita"/></g></g></svg>