<svg xmlns="http://www.w3.org/2000/svg" xmlns:xlink="http://www.w3.org/1999/xlink" width="43" height="43" viewBox="0 0 43 43"><defs><path id="fx6ua" d="M971.21 1125.45l1.43-1.429 1.01 1.01-1.429 1.43z"/><path id="fx6ub" d="M1006.01 1128.099h-37.152v-19.29h37.152zm1.429 2.858h-40.01v-1.43h40.01zm-18.576 2.857h-2.858v-1.429h2.858zm-21.434-27.864h40.01v1.43h-40.01zm41.439 2.858v-4.287H966v4.287h1.429v19.29H966v4.287h18.576v1.902l-9.14 11.954 1.134.867 9.074-11.865h1.075v10.003h1.43v-10.003h1.075l9.074 11.865 1.135-.867-9.141-11.954v-1.902h18.576v-4.286h-1.43v-19.29z"/><path id="fx6uc" d="M981.718 1116.963l7.86 7.86 10.716-10.718v3.991h1.43v-6.43h-6.431v1.43h3.99l-9.706 9.706-7.859-7.86-8.364 8.365 1.01 1.01z"/></defs><g><g transform="translate(-966 -1104)"><g><use fill="#008ddc" xlink:href="#fx6ua"/></g><g><use fill="#008ddc" xlink:href="#fx6ub"/></g><g><use fill="#008ddc" xlink:href="#fx6uc"/></g></g></g></svg>