<svg xmlns="http://www.w3.org/2000/svg" xmlns:xlink="http://www.w3.org/1999/xlink" width="24" height="24" viewBox="0 0 24 24"><defs><path id="9371a" d="M438.565 2111.692c-.764.655-1.31 1.091-1.473 1.691a.531.531 0 0 1-.546.436h-1.09c-.328 0-.6-.272-.546-.6.218-1.582 1.364-2.454 2.291-3.218.982-.764 1.527-1.255 1.527-2.182 0-1.527-1.2-2.728-2.727-2.728a2.701 2.701 0 0 0-2.728 2.728v.327a.502.502 0 0 1-.381.6l-1.037.328a.546.546 0 0 1-.709-.437c-.055-.273-.055-.545-.055-.818a4.89 4.89 0 0 1 4.91-4.91 4.89 4.89 0 0 1 4.91 4.91c0 2.018-1.31 3.055-2.346 3.873zm-1.473 4.855c0 .327-.218.545-.546.545h-1.09c-.328 0-.546-.218-.546-.545v-1.091c0-.327.218-.546.545-.546h1.091c.328 0 .546.219.546.546zM436.001 2098A11.966 11.966 0 0 0 424 2110.001a11.966 11.966 0 0 0 12.001 12.001 11.966 11.966 0 0 0 12.001-12.001A11.966 11.966 0 0 0 436.001 2098z"/></defs><g><g transform="translate(-424 -2098)"><use fill="#082344" xlink:href="#9371a"/></g></g></svg>