<svg xmlns="http://www.w3.org/2000/svg" xmlns:xlink="http://www.w3.org/1999/xlink" width="38" height="39" viewBox="0 0 38 39"><defs><path id="9fcqa" d="M435.9 810.152l-1.848.803c-.988.429-1.456 1.629-1.049 2.662l.476 1.208a12.103 12.103 0 0 0-2.43 2.56l-1.146-.502a1.84 1.84 0 0 0-1.478 0 1.986 1.986 0 0 0-1.049 1.105l-.77 1.947c-.407 1.041.061 2.233 1.05 2.663l1.696.739c.385.167.815-.024.973-.43a.795.795 0 0 0-.407-1.025l-1.697-.739c-.226-.095-.332-.373-.241-.612l.769-1.947a.458.458 0 0 1 .241-.254.42.42 0 0 1 .34 0l1.697.739c.332.143.709.024.905-.286a10.514 10.514 0 0 1 2.874-3.028.815.815 0 0 0 .28-.954l-.702-1.788a.483.483 0 0 1 .241-.612l1.848-.803a.42.42 0 0 1 .34 0 .458.458 0 0 1 .241.255l.702 1.788c.135.35.482.548.837.469a9.835 9.835 0 0 1 4.058 0 .749.749 0 0 0 .837-.47l.702-1.787a.44.44 0 0 1 .58-.255l1.849.811a.458.458 0 0 1 .241.254.488.488 0 0 1 0 .358l-.701 1.788a.809.809 0 0 0 .271.954 10.515 10.515 0 0 1 2.874 3.028.73.73 0 0 0 .905.294l1.698-.74a.42.42 0 0 1 .34 0 .458.458 0 0 1 .24.255l.762 1.947a.488.488 0 0 1 0 .358.458.458 0 0 1-.241.254l-1.697.74c-.332.142-.513.508-.445.881a11.479 11.479 0 0 1 0 4.276c-.068.366.12.74.445.882l1.697.74c.226.095.332.373.241.611l-.77 1.947a.44.44 0 0 1-.58.255l-1.697-.74a.724.724 0 0 0-.905.287 10.515 10.515 0 0 1-2.874 3.028.815.815 0 0 0-.28.953l.702 1.788a.488.488 0 0 1 0 .358.458.458 0 0 1-.241.254l-1.848.803a.42.42 0 0 1-.34 0 .458.458 0 0 1-.241-.254l-.702-1.788c-.158-.406-.596-.597-.973-.43a.798.798 0 0 0-.407 1.026l.701 1.788c.197.5.574.898 1.049 1.104.241.104.49.16.74.16.248 0 .505-.056.738-.16l1.848-.802a1.986 1.986 0 0 0 1.049-1.105c.196-.5.196-1.057 0-1.558l-.475-1.208a12.103 12.103 0 0 0 2.429-2.559l1.146.501c.988.43 2.12-.064 2.527-1.105l.77-1.947c.407-1.04-.06-2.233-1.049-2.662l-1.146-.5c.165-1.2.165-2.417 0-3.617l1.146-.5a1.986 1.986 0 0 0 1.049-1.105c.196-.5.196-1.057 0-1.558l-.762-1.947a1.986 1.986 0 0 0-1.049-1.105 1.84 1.84 0 0 0-1.478 0l-1.147.501a12.069 12.069 0 0 0-2.421-2.559l.475-1.208c.196-.5.196-1.057 0-1.558a1.986 1.986 0 0 0-1.048-1.104l-1.849-.811c-.988-.43-2.12.064-2.527 1.105l-.475 1.208a11.295 11.295 0 0 0-3.432 0l-.475-1.208a1.986 1.986 0 0 0-1.049-1.105 1.84 1.84 0 0 0-1.478 0z"/><path id="9fcqb" d="M446.687 824.863c-.023-3.513-2.746-6.35-6.073-6.35h-.045c-1.622.015-3.145.691-4.284 1.907-1.14 1.216-1.758 2.83-1.75 4.538 0 .429.339.779.746.779h.008c.415 0 .747-.358.74-.795a4.95 4.95 0 0 1 1.32-3.425c.86-.922 2.006-1.43 3.228-1.439h.03c2.512 0 4.564 2.146 4.579 4.792.015 2.663-2.022 4.84-4.549 4.864-.415 0-.747.358-.74.795 0 .43.34.779.748.779h.007c3.357-.024 6.057-2.917 6.035-6.445z"/><path id="9fcqc" d="M424.638 843.547a.74.74 0 0 0-.415-.135.723.723 0 0 0-.528.23l-.943.993a.113.113 0 0 1-.083.04.113.113 0 0 1-.083-.04l-1.026-1.08a.13.13 0 0 1 0-.175l.943-.994a.814.814 0 0 0 .09-.993 7.894 7.894 0 0 1-1.1-2.798c-.069-.365-.378-.635-.732-.635h-1.335c-.068 0-.121-.056-.121-.127v-1.534c0-.072.053-.127.12-.127h1.336a.754.754 0 0 0 .731-.636 7.894 7.894 0 0 1 1.102-2.798.825.825 0 0 0-.09-.993l-.944-.994a.13.13 0 0 1 0-.174l1.026-1.081c.03-.032.06-.04.083-.04.023 0 .053.008.083.04l.943 1.01c.249.261.649.309.943.094a7.079 7.079 0 0 1 2.655-1.16.781.781 0 0 0 .604-.77v-1.407c0-.072.052-.128.12-.128h1.456c.068 0 .12.056.12.128v1.406c0 .374.25.7.604.771.95.199 1.848.588 2.655 1.16a.724.724 0 0 0 .943-.095l.943-.993c.03-.032.06-.04.083-.04.023 0 .053.008.083.04l1.026 1.08c.03.032.038.064.038.088a.125.125 0 0 1-.038.087l-.943.994a.814.814 0 0 0-.09.993c.543.85.912 1.796 1.101 2.798.068.365.377.635.732.635h1.335c.068 0 .12.056.12.128v1.533c0 .072-.052.128-.12.128h-1.335a.754.754 0 0 0-.732.635 7.894 7.894 0 0 1-1.101 2.798.825.825 0 0 0 .09.993l.943.994c.03.031.038.063.038.087a.125.125 0 0 1-.038.088l-1.026 1.08a.113.113 0 0 1-.083.04.113.113 0 0 1-.083-.04l-.943-.993a.715.715 0 0 0-.943-.095 7.078 7.078 0 0 1-2.655 1.16.781.781 0 0 0-.603.77v1.407c0 .072-.053.128-.12.128h-1.457c-.068 0-.12-.056-.12-.128v-1.406c0-.374-.25-.7-.604-.771a7.373 7.373 0 0 1-2.655-1.176zm3.372 5.038h1.456c.89 0 1.614-.763 1.614-1.7v-.787a8.319 8.319 0 0 0 2.067-.906l.528.556c.301.318.709.5 1.139.5.43 0 .837-.174 1.139-.5l1.026-1.08c.301-.319.475-.748.475-1.2a1.71 1.71 0 0 0-.475-1.2l-.528-.557a9.284 9.284 0 0 0 .86-2.178h.746c.89 0 1.615-.763 1.615-1.7v-1.534c0-.938-.725-1.701-1.615-1.701h-.747a9.285 9.285 0 0 0-.86-2.178l.529-.556c.301-.318.475-.747.475-1.2a1.71 1.71 0 0 0-.475-1.2l-1.026-1.08a1.57 1.57 0 0 0-1.14-.501c-.43 0-.837.174-1.138.5l-.528.557a8.32 8.32 0 0 0-2.067-.906v-.787c0-.938-.724-1.701-1.614-1.701h-1.456c-.89 0-1.615.763-1.615 1.7v.788a8.32 8.32 0 0 0-2.066.906l-.528-.557a1.57 1.57 0 0 0-1.14-.5c-.43 0-.837.174-1.138.5l-1.026 1.081a1.768 1.768 0 0 0 0 2.4l.528.556a9.285 9.285 0 0 0-.86 2.178h-.747c-.89 0-1.614.763-1.614 1.7v1.535c0 .937.724 1.7 1.614 1.7h.747c.196.763.483 1.494.86 2.178l-.528.556a1.768 1.768 0 0 0 0 2.4l1.026 1.081c.301.318.709.5 1.139.5.43 0 .837-.174 1.139-.5l.528-.556a8.32 8.32 0 0 0 2.066.906v.787c.008.937.732 1.7 1.615 1.7z"/><path id="9fcqd" d="M425.8 837.078c0-1.71 1.32-3.1 2.941-3.1 1.622 0 2.942 1.39 2.942 3.1 0 1.708-1.32 3.099-2.942 3.099-1.621 0-2.941-1.399-2.941-3.1zm7.37 0c0-2.575-1.992-4.673-4.436-4.673s-4.428 2.098-4.428 4.673c0 2.574 1.991 4.673 4.435 4.673 2.444 0 4.428-2.099 4.428-4.673z"/></defs><g><g transform="translate(-417 -810)"><g><g><use fill="#fff" xlink:href="#9fcqa"/></g><g><use fill="#fff" xlink:href="#9fcqb"/></g><g><use fill="#fff" xlink:href="#9fcqc"/></g><g><use fill="#fff" xlink:href="#9fcqd"/></g></g></g></g></svg>