<svg xmlns="http://www.w3.org/2000/svg" xmlns:xlink="http://www.w3.org/1999/xlink" width="28" height="48" viewBox="0 0 28 48"><defs><path id="n2cua" d="M716.628 509h-23.372v-36.859h23.372zm-11.686 4.379a1.621 1.621 0 1 1 0-3.242 1.621 1.621 0 0 1 0 3.242zm-3.423-44.042h6.846a.392.392 0 0 1 0 .786h-6.846a.392.392 0 1 1 0-.786zM715.642 467h-21.4a3.251 3.251 0 0 0-3.242 3.242v41.515a3.252 3.252 0 0 0 3.242 3.243h21.4a3.25 3.25 0 0 0 3.242-3.242v-41.516a3.251 3.251 0 0 0-3.242-3.242z"/></defs><g><g transform="translate(-691 -467)"><g><use fill="#008ddc" xlink:href="#n2cua"/></g></g></g></svg>