<svg xmlns="http://www.w3.org/2000/svg" xmlns:xlink="http://www.w3.org/1999/xlink" width="48" height="48" viewBox="0 0 48 48"><defs><path id="irgca" d="M694.609 1161.122h24.765v1.547h-24.765z"/><path id="irgcb" d="M709.313 1164.217h10.06v1.548h-10.06z"/><path id="irgcc" d="M694.609 1164.217h10.06v1.548h-10.06z"/><path id="irgcd" d="M709.313 1158.026h10.06v1.548h-10.06z"/><path id="irgce" d="M694.609 1158.026h10.06v1.548h-10.06z"/><path id="irgcf" d="M694.609 1154.93h24.765v1.548h-24.765z"/><path id="irgcg" d="M724.017 1158.932v-4.002a4.648 4.648 0 0 0-4.643-4.643v1.548a3.099 3.099 0 0 1 3.095 3.095v4.002c0 1.372.453 2.676 1.289 3.737a6.011 6.011 0 0 0-1.289 3.738v4.002a3.099 3.099 0 0 1-3.095 3.095v1.548a4.648 4.648 0 0 0 4.643-4.643v-4.002c0-1.205.47-2.338 1.321-3.19l.547-.548-.547-.547a4.48 4.48 0 0 1-1.32-3.19z"/><path id="irgch" d="M691.513 1170.409v-4.002a6.011 6.011 0 0 0-1.289-3.738 6.011 6.011 0 0 0 1.289-3.737v-4.002a3.099 3.099 0 0 1 3.096-3.095v-1.548a4.648 4.648 0 0 0-4.644 4.643v4.002a4.482 4.482 0 0 1-1.32 3.19l-.548.547.547.548a4.48 4.48 0 0 1 1.321 3.19v4.002a4.648 4.648 0 0 0 4.644 4.643v-1.548a3.099 3.099 0 0 1-3.096-3.095z"/><path id="irgci" d="M706.991 1179.695a1.55 1.55 0 0 1-1.548-1.547 1.55 1.55 0 0 1 1.548-1.548 1.55 1.55 0 0 1 1.548 1.548 1.55 1.55 0 0 1-1.548 1.547zm0-4.643a3.099 3.099 0 0 0-3.095 3.096 3.099 3.099 0 0 0 3.095 3.095 3.099 3.099 0 0 0 3.096-3.095 3.099 3.099 0 0 0-3.096-3.096z"/><path id="irgcj" d="M706.991 1171.956a6.21 6.21 0 0 0-2.946.745l.737 1.361a4.648 4.648 0 0 1 6.294 6.294l1.362.738a6.21 6.21 0 0 0 .744-2.946 6.198 6.198 0 0 0-6.19-6.192z"/><path id="irgck" d="M706.991 1182.791a4.648 4.648 0 0 1-4.085-6.852l-1.362-.738a6.21 6.21 0 0 0-.744 2.947 6.198 6.198 0 0 0 6.191 6.191 6.21 6.21 0 0 0 2.947-.744l-.738-1.362a4.655 4.655 0 0 1-2.209.558z"/><path id="irgcl" d="M717.826 1177.374v-1.378l-1.937-.485a9.295 9.295 0 0 0-.742-1.79l1.028-1.713-3.043-3.043-1.713 1.029a9.2 9.2 0 0 0-1.79-.743l-.486-1.938h-4.304l-.485 1.937c-.62.184-1.22.433-1.789.742l-1.713-1.028-3.043 3.043 1.028 1.713a9.2 9.2 0 0 0-.742 1.79l-1.939.486v1.378h-11.608v-28.635h44.887v28.635zm-1.548 1.717l-1.66.416-.11.456a7.678 7.678 0 0 1-.92 2.214l-.245.4.883 1.47-1.335 1.335-1.47-.883-.4.245a7.69 7.69 0 0 1-2.214.92l-.456.109-.416 1.662h-1.887l-.416-1.661-.456-.11a7.678 7.678 0 0 1-2.215-.919l-.4-.245-1.47.882-1.334-1.334.883-1.47-.246-.4a7.689 7.689 0 0 1-.918-2.215l-.11-.456-1.662-.416v-1.887l1.661-.415.11-.456a7.678 7.678 0 0 1 .919-2.215l.245-.4-.882-1.47 1.334-1.334 1.47.882.4-.245a7.689 7.689 0 0 1 2.214-.919l.457-.11.416-1.661h1.887l.415 1.66.456.11a7.678 7.678 0 0 1 2.215.92l.4.244 1.47-.882 1.334 1.334-.882 1.47.245.4c.421.688.73 1.433.919 2.215l.11.456 1.661.416zm-30.956-36.543h43.339c.426 0 .774.347.774.774v3.87h-44.887v-3.87c0-.427.347-.774.774-.774zm45.66.774a2.325 2.325 0 0 0-2.321-2.322h-43.34a2.325 2.325 0 0 0-2.321 2.322v35.6h13.156v1.378l1.938.485c.184.62.432 1.219.742 1.789l-1.029 1.713 3.043 3.043 1.714-1.028a9.2 9.2 0 0 0 1.789.742l.486 1.938h4.304l.485-1.937a9.295 9.295 0 0 0 1.79-.742l1.713 1.029 3.043-3.043-1.029-1.714a9.2 9.2 0 0 0 .742-1.789l1.939-.486v-1.378h13.156z"/><path id="irgcm" d="M686.096 1144.096h1.547v1.547h-1.547z"/><path id="irgcn" d="M689.191 1144.096h1.548v1.547h-1.548z"/><path id="irgco" d="M692.287 1144.096h1.548v1.547h-1.548z"/></defs><g><g transform="translate(-683 -1141)"><g><use fill="#008ddc" xlink:href="#irgca"/></g><g><use fill="#008ddc" xlink:href="#irgcb"/></g><g><use fill="#008ddc" xlink:href="#irgcc"/></g><g><use fill="#008ddc" xlink:href="#irgcd"/></g><g><use fill="#008ddc" xlink:href="#irgce"/></g><g><use fill="#008ddc" xlink:href="#irgcf"/></g><g><use fill="#008ddc" xlink:href="#irgcg"/></g><g><use fill="#008ddc" xlink:href="#irgch"/></g><g><use fill="#008ddc" xlink:href="#irgci"/></g><g><use fill="#008ddc" xlink:href="#irgcj"/></g><g><use fill="#008ddc" xlink:href="#irgck"/></g><g><use fill="#008ddc" xlink:href="#irgcl"/></g><g><use fill="#008ddc" xlink:href="#irgcm"/></g><g><use fill="#008ddc" xlink:href="#irgcn"/></g><g><use fill="#008ddc" xlink:href="#irgco"/></g></g></g></svg>