<svg xmlns="http://www.w3.org/2000/svg" xmlns:xlink="http://www.w3.org/1999/xlink" width="14" height="14" viewBox="0 0 14 14"><defs><path id="sg15a" d="M1011.542 3236.8a.628.628 0 0 1-.193.55l-1.83 1.816a1.03 1.03 0 0 1-.322.233 1.336 1.336 0 0 1-.392.124 1.874 1.874 0 0 1-.261.014 6.34 6.34 0 0 1-.847-.09c-.39-.06-.866-.206-1.43-.44-.564-.233-1.203-.584-1.919-1.052-.715-.467-1.476-1.11-2.283-1.925a15.07 15.07 0 0 1-1.595-1.816 12.935 12.935 0 0 1-1.018-1.602 8.63 8.63 0 0 1-.578-1.334 7.079 7.079 0 0 1-.261-1.032 3.407 3.407 0 0 1-.055-.68c.01-.166.014-.257.014-.276.018-.128.06-.259.124-.392a1.03 1.03 0 0 1 .233-.323l1.83-1.83a.606.606 0 0 1 .44-.192c.119 0 .224.035.316.103.092.07.17.154.234.255l1.472 2.792a.67.67 0 0 1 .068.481.857.857 0 0 1-.233.44l-.674.674a.23.23 0 0 0-.049.09.34.34 0 0 0-.02.103c.036.192.119.413.247.66.11.22.28.488.51.805.228.316.554.68.976 1.093.412.422.78.75 1.1.984.321.233.59.405.805.515.215.11.38.177.495.2l.172.034a.328.328 0 0 0 .09-.02.23.23 0 0 0 .089-.049l.784-.797a.843.843 0 0 1 .577-.22c.156 0 .28.027.372.082h.013l2.655 1.568c.192.12.307.27.344.454z"/></defs><g><g transform="translate(-998 -3226)"><use fill="#fff" xlink:href="#sg15a"/></g></g></svg>