<svg xmlns="http://www.w3.org/2000/svg" xmlns:xlink="http://www.w3.org/1999/xlink" width="22" height="19" viewBox="0 0 22 19"><defs><path id="mq4na" d="M1265.58 3221.104a.764.764 0 0 0-.881-.253l-19.96 7.583a1.165 1.165 0 0 0-.73.965c-.052.44.132.867.479 1.113l2.853 2.048c.276.199.632.22.928.056l6.189-3.432-4.824 3.787a.969.969 0 0 0-.362.759v3.507a.99.99 0 0 0 .493.866.897.897 0 0 0 .96-.046l2.168-1.512 2.132 1.529a1.085 1.085 0 0 0 .86.18c.3-.065.565-.26.727-.533l9.031-15.656a.865.865 0 0 0-.063-.961z"/></defs><g><g transform="translate(-1244 -3220)"><use fill="#fff" xlink:href="#mq4na"/></g></g></svg>