<svg xmlns="http://www.w3.org/2000/svg" xmlns:xlink="http://www.w3.org/1999/xlink" width="33" height="35" viewBox="0 0 33 35"><defs><path id="bb7da" d="M829.462 820.428c-.352 0-.638.3-.638.672 0 .371.286.672.638.672.353 0 .638-.301.638-.672 0-.372-.285-.672-.638-.672z"/><path id="bb7db" d="M817.868 832.643c-.353 0-.638.301-.638.672 0 .372.285.672.638.672.352 0 .638-.3.638-.672 0-.371-.286-.672-.638-.672z"/><path id="bb7dc" d="M833.62 822.098a4.864 4.864 0 0 1-1.632-.28.616.616 0 0 0-.655.162l-12.63 13.307a.698.698 0 0 0-.154.69 5.56 5.56 0 0 1-.696 4.857c-.97 1.423-2.48 2.24-4.143 2.24-.186 0-.372-.011-.556-.032l2.027-2.119a.69.69 0 0 0 .188-.477v-1.902a.691.691 0 0 0-.186-.475l-1.827-1.925a.622.622 0 0 0-.451-.197h-1.806a.623.623 0 0 0-.453.199l-2.01 2.135c-.02-.194-.03-.39-.03-.586 0-1.751.774-3.342 2.125-4.364 1.355-1.026 3.035-1.293 4.61-.734.23.082.484.019.655-.162l12.63-13.307a.698.698 0 0 0 .154-.69 5.557 5.557 0 0 1 .695-4.855c.971-1.425 2.482-2.241 4.144-2.241.192 0 .384.01.573.033l-1.985 2.122a.69.69 0 0 0-.183.472v1.902a.69.69 0 0 0 .179.467l1.763 1.924c.12.132.286.206.459.206h1.805c.17 0 .333-.072.453-.199l2.01-2.135c.02.194.03.39.03.586 0 2.966-2.29 5.378-5.104 5.378zm-5.399 6.956l-2.82 2.971-.862-.986 2.745-2.891zm.942.91l8.823 8.528c.985 1.05.982 2.749-.01 3.794a2.462 2.462 0 0 1-3.6.01l-8.11-9.28zM812.93 816.85a.615.615 0 0 0-.451-.19l-1.443-.001-2.265-3.984 1.1-1.159 3.775 2.387v1.52a.69.69 0 0 0 .186.475l8.018 8.467-.902.95zm26.276-2.717a.616.616 0 0 0-.597.181l-2.646 2.81h-1.268l-1.396-1.525v-1.354l2.608-2.789a.696.696 0 0 0 .166-.627.66.66 0 0 0-.417-.481 6.071 6.071 0 0 0-2.038-.351c-2.078 0-3.966 1.021-5.18 2.801a6.935 6.935 0 0 0-.985 5.664l-4.7 4.952-7.831-8.27v-1.622a.68.68 0 0 0-.31-.577l-4.512-2.852a.614.614 0 0 0-.78.101l-1.804 1.901a.7.7 0 0 0-.096.822l2.707 4.753a.632.632 0 0 0 .547.327h1.54l7.831 8.27-4.682 4.933c-1.855-.529-3.795-.16-5.377 1.039-1.69 1.278-2.658 3.267-2.658 5.456 0 .735.112 1.457.333 2.147.07.22.245.388.46.44a.617.617 0 0 0 .598-.181l2.645-2.81h1.275l1.453 1.532v1.343l-2.666 2.787a.696.696 0 0 0-.172.63.66.66 0 0 0 .418.484 6.07 6.07 0 0 0 2.037.351c2.079 0 3.966-1.02 5.18-2.8a6.938 6.938 0 0 0 .986-5.665l3.76-3.962.862.986-.396.416a.698.698 0 0 0 0 .951c.25.262.654.262.903 0l.358-.377 8.083 9.25a.67.67 0 0 0 .018.02c1.496 1.575 3.919 1.576 5.415 0 1.492-1.573 1.492-4.133 0-5.705a.722.722 0 0 0-.02-.02l-8.793-8.5.354-.373a.698.698 0 0 0 0-.95.615.615 0 0 0-.903 0l-.392.414-.938-.907 3.779-3.981a6.088 6.088 0 0 0 1.653.228c3.519 0 6.381-3.016 6.381-6.723 0-.735-.112-1.457-.333-2.147a.651.651 0 0 0-.46-.44z"/><path id="bb7dd" d="M827.206 822.526l-7.985 8.413a.698.698 0 0 0 0 .95c.25.263.653.263.902 0l7.986-8.413a.698.698 0 0 0 0-.95.615.615 0 0 0-.903 0z"/><path id="bb7de" d="M835.27 840.385c.249.262.653.262.902-.002a.698.698 0 0 0-.001-.95l-5.752-6.04a.615.615 0 0 0-.902 0 .698.698 0 0 0 0 .952z"/></defs><g><g transform="translate(-807 -810)"><g><use fill="#fff" xlink:href="#bb7da"/></g><g><use fill="#fff" xlink:href="#bb7db"/></g><g><use fill="#fff" xlink:href="#bb7dc"/></g><g><use fill="#fff" xlink:href="#bb7dd"/></g><g><use fill="#fff" xlink:href="#bb7de"/></g></g></g></svg>