<svg xmlns="http://www.w3.org/2000/svg" xmlns:xlink="http://www.w3.org/1999/xlink" width="62" height="62" viewBox="0 0 62 62"><defs><path id="l8aba" d="M489.933 693.433a3.1 3.1 0 0 1-3.1 3.1h-51.666a3.1 3.1 0 0 1-3.1-3.1v-3.1h57.866zM453.901 704.8a10.748 10.748 0 0 0 2.909-6.2h8.38a10.748 10.748 0 0 0 2.91 6.2zm18.466 4.133h-22.734a1.033 1.033 0 0 1 0-2.066h22.734a1.033 1.033 0 0 1 0 2.066zm-20.97-31.73a1.034 1.034 0 0 0-1.461 0L447.139 680h-10.892a11.367 11.367 0 0 1 22.64 0h-8.826l1.336-1.336a1.033 1.033 0 0 0 0-1.461zm-16.23-26.136h51.666a3.1 3.1 0 0 1 3.1 3.1v3.1H479.6a1.033 1.033 0 1 0 0 2.066h10.333V680h-2.066a1.033 1.033 0 1 0 0 2.067h2.066v6.2h-57.866v-6.2h27.9c.57 0 1.033-.463 1.033-1.033-.003-7.213-5.703-13.134-12.91-13.412-7.207-.277-13.346 5.188-13.904 12.378h-2.12v-20.667h37.2a1.033 1.033 0 1 0 0-2.066h-37.2v-3.1a3.1 3.1 0 0 1 3.1-3.1zm0-2.067a5.173 5.173 0 0 0-5.167 5.167v39.266a5.173 5.173 0 0 0 5.167 5.167h19.552c-.444 3.173-2.82 6.2-5.086 6.2a3.1 3.1 0 0 0 0 6.2h22.734a3.1 3.1 0 0 0 0-6.2c-2.266 0-4.642-3.027-5.086-6.2h19.552a5.173 5.173 0 0 0 5.167-5.167v-39.266a5.173 5.173 0 0 0-5.167-5.167z"/><path id="l8abb" d="M462.034 693.433a1.034 1.034 0 1 1-2.068 0 1.034 1.034 0 0 1 2.068 0z"/><path id="l8abc" d="M471.934 664.898a2.067 2.067 0 0 0 1.466-1.967l-.02-1.531 2.086-.02v1.55c.007.904.6 1.7 1.466 1.963.447.142.88.322 1.297.538a2.066 2.066 0 0 0 2.427-.35l1.07-1.098 1.49 1.463-1.099 1.098a2.067 2.067 0 0 0-.348 2.426c.216.416.396.85.538 1.297a2.067 2.067 0 0 0 1.961 1.466l1.532-.02v2.087h-1.532c-.904.006-1.7.6-1.963 1.466-.142.447-.322.88-.538 1.297a2.066 2.066 0 0 0 .35 2.425l1.1 1.071-1.463 1.491-1.098-1.097a2.067 2.067 0 0 0-2.426-.35 8.33 8.33 0 0 1-1.297.539 2.067 2.067 0 0 0-1.467 1.96l.021 1.531-2.087.021v-1.55c-.006-.904-.6-1.7-1.465-1.964a8.192 8.192 0 0 1-1.297-.538 2.138 2.138 0 0 0-.988-.243 2.024 2.024 0 0 0-1.44.593l-1.069 1.098-1.491-1.462 1.099-1.098a2.067 2.067 0 0 0 .349-2.427 8.295 8.295 0 0 1-.539-1.297 2.067 2.067 0 0 0-1.96-1.466l-1.532.02-.021-2.087h1.55c.905-.006 1.7-.6 1.963-1.466a8.28 8.28 0 0 1 .539-1.297 2.066 2.066 0 0 0-.35-2.426l-1.098-1.07 1.462-1.49 1.099 1.098a2.066 2.066 0 0 0 2.426.349c.416-.216.85-.396 1.297-.538zm-3.362-2.377a2.049 2.049 0 0 0-2.893 0l-1.489 1.49a2.046 2.046 0 0 0 0 2.893l1.075 1.111a8.977 8.977 0 0 0-.666 1.654h-1.55a2.05 2.05 0 0 0-2.049 2.044v2.107a2.05 2.05 0 0 0 2.046 2.047l1.544.024c.178.567.41 1.116.697 1.636l-1.098 1.1a2.048 2.048 0 0 0 0 2.893l1.491 1.49c.8.797 2.094.797 2.893 0l1.112-1.073a9.075 9.075 0 0 0 1.648.665v1.55a2.05 2.05 0 0 0 2.046 2.048h2.108a2.049 2.049 0 0 0 2.047-2.046l.026-1.544a9.156 9.156 0 0 0 1.635-.697l1.098 1.097a2.05 2.05 0 0 0 2.894 0l1.49-1.49c.799-.8.799-2.094 0-2.893l-1.074-1.107a8.966 8.966 0 0 0 .665-1.653h1.55a2.05 2.05 0 0 0 2.049-2.047v-2.107a2.049 2.049 0 0 0-2.047-2.046l-1.543-.025a8.993 8.993 0 0 0-.698-1.637l1.099-1.098a2.046 2.046 0 0 0 0-2.894l-1.492-1.492a2.049 2.049 0 0 0-2.894 0l-1.105 1.076a9.056 9.056 0 0 0-1.653-.666v-1.55a2.05 2.05 0 0 0-2.047-2.048h-2.108a2.05 2.05 0 0 0-2.046 2.046l-.026 1.544a9.108 9.108 0 0 0-1.635.698z"/><path id="l8abd" d="M474.433 668.633a4.133 4.133 0 1 1 0 8.267 4.133 4.133 0 0 1 0-8.267zm0 10.333a6.2 6.2 0 1 0 0-12.4 6.2 6.2 0 0 0 0 12.4z"/><path id="l8abe" d="M475.466 672.767a1.033 1.033 0 1 1-2.066 0 1.033 1.033 0 0 1 2.066 0z"/><path id="l8abf" d="M436.2 654.167a1.033 1.033 0 1 1-2.066 0 1.033 1.033 0 0 1 2.066 0z"/><path id="l8abg" d="M440.333 654.167a1.033 1.033 0 1 1-2.066 0 1.033 1.033 0 0 1 2.066 0z"/><path id="l8abh" d="M444.466 654.167a1.033 1.033 0 1 1-2.066 0 1.033 1.033 0 0 1 2.066 0z"/><path id="l8abi" d="M448.6 672.767a1.033 1.033 0 1 1-2.067 0 1.033 1.033 0 0 1 2.067 0z"/><path id="l8abj" d="M452.733 674.833a1.033 1.033 0 1 1-2.066 0 1.033 1.033 0 0 1 2.066 0z"/><path id="l8abk" d="M455.833 677.933a1.033 1.033 0 1 1-2.066 0 1.033 1.033 0 0 1 2.066 0z"/><path id="l8abl" d="M444.466 674.833a1.033 1.033 0 1 1-2.066 0 1.033 1.033 0 0 1 2.066 0z"/><path id="l8abm" d="M441.367 677.933a1.033 1.033 0 1 1-2.067 0 1.033 1.033 0 0 1 2.067 0z"/><path id="l8abn" d="M453.057 664.342a17.844 17.844 0 0 0-6.585-.842 1.036 1.036 0 0 0 .122 2.066 15.764 15.764 0 0 1 5.817.743 1.034 1.034 0 1 0 .646-1.963z"/><path id="l8abo" d="M439.881 665.234c-1.61.784-3.09 1.81-4.391 3.042a1.034 1.034 0 0 0 1.42 1.501 15.529 15.529 0 0 1 3.876-2.686 1.034 1.034 0 0 0-.905-1.86z"/><path id="l8abp" d="M432.067 679.638l2.118.108-.053 2.734-2.065-.307z"/></defs><g><g transform="translate(-430 -649)"><g><use fill="#008ddc" xlink:href="#l8aba"/></g><g><use fill="#008ddc" xlink:href="#l8abb"/></g><g><use fill="#008ddc" xlink:href="#l8abc"/></g><g><use fill="#008ddc" xlink:href="#l8abd"/></g><g><use fill="#008ddc" xlink:href="#l8abe"/></g><g><use fill="#008ddc" xlink:href="#l8abf"/></g><g><use fill="#008ddc" xlink:href="#l8abg"/></g><g><use fill="#008ddc" xlink:href="#l8abh"/></g><g><use fill="#008ddc" xlink:href="#l8abi"/></g><g><use fill="#008ddc" xlink:href="#l8abj"/></g><g><use fill="#008ddc" xlink:href="#l8abk"/></g><g><use fill="#008ddc" xlink:href="#l8abl"/></g><g><use fill="#008ddc" xlink:href="#l8abm"/></g><g><use fill="#008ddc" xlink:href="#l8abn"/></g><g><use fill="#008ddc" xlink:href="#l8abo"/></g><g><use fill="#f2f2f2" xlink:href="#l8abp"/></g></g></g></svg>